<?xml version="1.0" standalone="no"?>
<!DOCTYPE svg PUBLIC "-//W3C//DTD SVG 20010904//EN"
 "http://www.w3.org/TR/2001/REC-SVG-20010904/DTD/svg10.dtd">
<svg version="1.0" xmlns="http://www.w3.org/2000/svg"
 width="256.000000pt" height="256.000000pt" viewBox="0 0 256.000000 256.000000"
 preserveAspectRatio="xMidYMid meet">
<metadata>
Created by potrace 1.11, written by Peter Selinger 2001-2013
</metadata>
<g transform="translate(0.000000,256.000000) scale(0.100000,-0.100000)"
fill="#000000" stroke="none">
<path d="M1514 2068 c-16 -13 -101 -96 -190 -185 l-161 -161 49 -48 49 -48
150 150 149 149 448 -447 c278 -279 457 -449 473 -453 33 -8 67 20 75 61 6 30
-5 42 -238 276 l-244 244 2 150 c1 161 -9 207 -46 219 -31 10 -68 -2 -81 -27
-6 -12 -12 -61 -12 -110 0 -78 -2 -86 -16 -75 -8 6 -86 83 -173 170 -170 169
-182 176 -234 135z"/>
<path d="M1419 1703 c-60 -59 -109 -113 -109 -120 0 -6 8 -18 18 -25 10 -7 29
-31 42 -53 21 -34 25 -52 25 -120 -1 -68 -5 -90 -32 -145 -35 -75 -86 -129
-152 -162 -37 -19 -62 -23 -133 -23 -75 0 -91 -3 -108 -21 -19 -19 -20 -21 -3
-39 10 -11 37 -45 60 -75 23 -30 50 -64 60 -75 42 -44 120 -153 132 -183 20
-47 6 -115 -31 -157 l-30 -35 78 0 c99 0 153 24 188 82 23 38 24 50 26 205 1
175 5 196 41 230 34 31 71 38 111 19 59 -28 68 -59 71 -251 2 -190 8 -210 75
-255 35 -25 37 -25 272 -25 l237 0 36 28 c67 51 70 67 71 297 0 113 -3 216 -6
230 -4 14 -170 187 -385 403 -348 347 -381 377 -412 377 -30 0 -48 -14 -142
-107z"/>
<path d="M473 1675 c-16 -7 -57 -36 -92 -66 -160 -135 -165 -138 -203 -139
-30 0 -48 -10 -106 -62 -39 -35 -71 -71 -71 -82 -1 -21 171 -202 201 -212 22
-7 46 8 111 68 41 39 47 49 47 86 0 33 4 42 21 47 12 4 24 3 28 -2 8 -12 123
-155 136 -169 6 -6 21 -26 35 -44 14 -18 35 -44 47 -58 12 -14 19 -31 15 -36
-3 -6 -77 -100 -164 -209 -87 -109 -158 -205 -158 -215 0 -28 23 -64 46 -73
40 -14 78 22 226 207 l147 185 140 -174 c135 -169 153 -187 190 -187 23 0 61
41 61 66 0 26 -9 39 -168 237 l-134 167 28 38 c16 20 38 48 50 62 12 14 31 35
41 48 17 22 19 23 55 8 117 -49 242 12 282 137 19 57 21 120 5 149 -10 19 -15
16 -83 -51 -39 -39 -85 -75 -102 -80 -63 -18 -134 42 -134 113 0 31 10 46 75
113 66 70 73 79 58 91 -23 16 -78 15 -142 -3 -150 -45 -208 -218 -113 -337 16
-20 15 -23 -56 -110 l-55 -67 -55 72 c-31 40 -59 74 -62 77 -3 3 -31 38 -63
77 -65 82 -65 82 11 146 39 33 50 38 78 32 41 -7 74 9 74 35 0 11 -13 33 -30
50 -61 62 -155 91 -217 65z"/>
</g>
</svg>
